<?xml version="1.0" encoding="utf-8"?>
<!-- Generator: Adobe Illustrator 21.1.0, SVG Export Plug-In . SVG Version: 6.00 Build 0)  -->
<svg version="1.1" id="Слой_1" xmlns="http://www.w3.org/2000/svg" xmlns:xlink="http://www.w3.org/1999/xlink" x="0px" y="0px"
	 viewBox="0 0 59.8 59.8" style="enable-background:new 0 0 59.8 59.8;" xml:space="preserve">
<style type="text/css">
	.st0{clip-path:url(#SVGID_2_);fill:#506A85;}
</style>
<g>
	<defs>
		<rect id="SVGID_1_" y="0" width="59.8" height="59.8"/>
	</defs>
	<clipPath id="SVGID_2_">
		<use xlink:href="#SVGID_1_"  style="overflow:visible;"/>
	</clipPath>
	<path class="st0" d="M52.6,33.2c1.5,0.3,2.3,0.6,2.5,0.7c-1.3,7.4-4.9,13.1-10.9,17c-1-5.8-2.7-11.9-4.9-18.2
		C43.6,32,48.1,32.2,52.6,33.2 M35.4,23.8c3.5-1.4,6.6-3.2,9.4-5.4c2.2-1.7,3.6-3.1,4.4-4.1l0.5-0.6c3.8,4.6,5.7,10,5.7,16
		c-0.3-0.1-1.2-0.3-2.7-0.5c-5.2-0.8-10.2-1-15-0.4L37,27.4C36.5,26.2,36,25,35.4,23.8 M34.4,33.9c2.6,6.8,4.4,13.3,5.5,19.4
		c-3.4,1.4-6.7,2.1-10,2.1c-5.8,0-11-1.8-15.7-5.5l0.1-0.1c4-7.3,10.7-12.5,20-15.7L34.4,33.9z M51,51c5.9-5.8,8.8-12.9,8.8-21.1
		c0-8.2-2.9-15.3-8.8-21.1S38.1,0,29.9,0C21.7,0,14.6,2.9,8.8,8.8S0,21.7,0,29.9C0,38.1,2.9,45.2,8.8,51s12.9,8.8,21.1,8.8
		C38.1,59.8,45.2,56.9,51,51 M46.7,10.8c-2.8,3.8-7.2,6.8-13.3,9.1c-2.9-5.4-6.1-10.3-9.5-14.8c1.9-0.5,3.9-0.8,6-0.8
		c6.3,0,11.9,2.1,16.9,6.4L46.7,10.8z M13.6,49.5l0.5,0.4C14.1,49.9,13.9,49.8,13.6,49.5 M31.7,30c-2.3,0.8-4.7,1.9-7.2,3.3
		c-2.5,1.5-4.5,2.9-6.1,4.5c-2.6,2.5-4.9,5-6.7,7.7c-0.2,0.3-0.5,0.7-0.8,1.4c-4.3-4.9-6.5-10.5-6.5-17V29c9.5,0,18.2-1.2,26.1-3.6
		c0.9,1.6,1.6,3.1,2.1,4.4C32.3,29.8,32,29.9,31.7,30 M4.9,24.6C5.8,20.6,7.5,17.1,10,14c2.5-3.1,5.5-5.5,8.9-7.2
		c0.2,0.2,0.7,0.9,1.6,2.1c3.2,4.7,5.9,8.9,7.9,12.5C20.7,23.5,12.8,24.6,4.9,24.6"/>
</g>
</svg>
