<?xml version="1.0" encoding="utf-8"?>
<!-- Generator: Adobe Illustrator 21.1.0, SVG Export Plug-In . SVG Version: 6.00 Build 0)  -->
<svg version="1.1" id="Слой_1" xmlns="http://www.w3.org/2000/svg" xmlns:xlink="http://www.w3.org/1999/xlink" x="0px" y="0px"
	 viewBox="0 0 58.2 57.2" style="enable-background:new 0 0 58.2 57.2;" xml:space="preserve">
<style type="text/css">
	.st0{clip-path:url(#SVGID_2_);fill:#506A85;}
</style>
<g>
	<defs>
		<rect id="SVGID_1_" y="0" width="58.2" height="57.2"/>
	</defs>
	<clipPath id="SVGID_2_">
		<use xlink:href="#SVGID_1_"  style="overflow:visible;"/>
	</clipPath>
	<path class="st0" d="M48.5,12.6h-6.1v9.8h-9.8v6.1h9.8v9.8h6.1v-9.8h9.8v-6.1h-9.8V12.6z M23.3,11c0.8,2.5,0.7,4.9-0.2,7.3
		s-2.3,3.8-4.1,4.3c-0.3,0.1-0.7,0.1-1.2,0.1c-1.6,0-3.2-0.7-4.6-2.1c-1.4-1.4-2.4-3.2-3-5.3c-0.6-2.2-0.6-4.5,0.1-7.1
		c0.8-2.2,2-3.5,3.8-4C14.5,4.1,14.9,4,15.3,4C19.3,4,22,6.4,23.3,11 M17.7,36c2.7,0,4.9,0.7,6.6,2c1.7,1.3,2.7,3.2,2.9,5.5
		c0.2,2.2-0.6,4.1-2.4,5.7c-1.6,1.5-3.9,2.3-6.7,2.6c-2.8,0.3-5.4-0.2-7.8-1.4c-2.3-1.2-3.6-3-3.8-5.3c-0.2-2.4,0.8-4.5,3-6.3
		c2.2-1.8,4.6-2.7,7.1-2.8H17.7z M17.8,33c-3,0-6.5,0.6-10.3,1.8c-2.2,0.7-4,1.9-5.4,3.7c-1.4,1.8-2.1,4-2.1,6.6
		c0,2.6,0.6,4.8,1.8,6.6c1.2,1.8,2.8,3.1,4.9,3.8c3.1,1.1,5.9,1.7,8.4,1.7c0.1,0,0.2,0,0.3-0.1l0.3,0.1h0.3c3.6,0,6.8-0.7,9.8-2.2
		c5-2.3,7.5-6.5,7.5-12.6c0-3.8-2.3-7.7-6.8-11.6c-2.2-2-3.3-3.4-3.3-4.2c0-0.7,0.8-1.9,2.5-3.5c2.9-2.4,4.4-5.9,4.4-10.3
		c0-2.7-0.3-4.8-0.9-6.3C28.5,5,27.3,3.9,25.6,3c0.5-0.3,1.3-0.4,2.5-0.4c3.4-0.6,5.1-1.4,5.1-2.3V0H18.2c-3.3,0-6.6,1.1-9.8,3.3
		c-1.5,1-2.7,2.5-3.7,4.5s-1.5,4.1-1.5,6.4c0,5,1.6,8.5,4.8,10.4c2,1.3,4.4,1.9,7.1,1.9H16l-0.1,0.9c0,1.8,0.7,3.6,2.1,5.6H17.8z"/>
</g>
</svg>
