<?xml version="1.0" encoding="utf-8"?>
<!-- Generator: Adobe Illustrator 21.1.0, SVG Export Plug-In . SVG Version: 6.00 Build 0)  -->
<svg version="1.1" id="Слой_1" xmlns="http://www.w3.org/2000/svg" xmlns:xlink="http://www.w3.org/1999/xlink" x="0px" y="0px"
	 viewBox="0 0 50.2 64.9" style="enable-background:new 0 0 50.2 64.9;" xml:space="preserve">
<style type="text/css">
	.st0{clip-path:url(#SVGID_2_);fill:#506A85;}
</style>
<g>
	<defs>
		<rect id="SVGID_1_" y="0" width="50.2" height="64.9"/>
	</defs>
	<clipPath id="SVGID_2_">
		<use xlink:href="#SVGID_1_"  style="overflow:visible;"/>
	</clipPath>
	<path class="st0" d="M22.8,44.1c0.9,0.6,1.5,1.1,2,1.3c0.5,0.3,1.1,0.6,1.9,0.9c0.8,0.3,1.7,0.5,2.7,0.6c7,0.5,12.4-2.3,16.4-8.4
		c4-6.1,5.4-13,4.3-20.6c-0.8-6.2-3.9-11-9.4-14.2S29.1-0.8,22,0C16.2,0.7,11.2,3.2,6.8,7.3C2.5,11.4,0.2,16.5,0,22.5
		c-0.3,8.5,2.8,13.4,9.1,15c0.8-2,1.2-3.4,1.2-4.1c0-0.7-0.5-1.8-1.4-3.3c-0.7-1.3-1.2-2.4-1.4-3.4c-0.6-4,0.1-7.7,2.1-11
		c1.9-3.2,4.4-5.6,7.5-7.4s6.8-2.6,10.9-2.3c3.9,0.3,7.2,1.8,9.8,4.5c1.9,1.9,3,4.6,3.5,8.3c0.4,3.6,0.2,7.1-0.7,10.6
		c-0.9,3.3-2.4,6.1-4.6,8.4c-2.2,2.4-4.9,3.2-8,2.6c-2.3-0.5-3.7-1.5-4.1-3.2c-0.5-1.7-0.4-3.7,0.3-5.9c0.2-0.8,0.9-3,2.1-6.7
		c1.8-5.5,1.1-8.8-2-10c-2.5-1-4.7-0.5-6.5,1.4c-1.8,1.9-2.8,4.2-3.1,6.8c-0.2,2.8,0.2,5.3,1.2,7.5c-0.3,1.7-0.8,3.9-1.6,6.4
		c-1.3,4.6-2.3,9-3.1,13.2c-0.3,1.5-0.5,2.9-0.6,4.1c-0.2,2-0.1,5.7,0.3,10.9c2.8-2.1,4.9-4.9,6.2-8.4c1.5-3.8,2.7-8.3,3.8-13.7
		C21.2,43,21.8,43.4,22.8,44.1"/>
</g>
</svg>
