<?xml version="1.0" encoding="utf-8"?>
<!-- Generator: Adobe Illustrator 21.1.0, SVG Export Plug-In . SVG Version: 6.00 Build 0)  -->
<svg version="1.1" id="Слой_1" xmlns="http://www.w3.org/2000/svg" xmlns:xlink="http://www.w3.org/1999/xlink" x="0px" y="0px"
	 viewBox="0 0 59.8 48.5" style="enable-background:new 0 0 59.8 48.5;" xml:space="preserve">
<style type="text/css">
	.st0{clip-path:url(#SVGID_2_);fill:#506A85;}
</style>
<g>
	<defs>
		<rect id="SVGID_1_" y="0" width="59.8" height="48.5"/>
	</defs>
	<clipPath id="SVGID_2_">
		<use xlink:href="#SVGID_1_"  style="overflow:visible;"/>
	</clipPath>
	<path class="st0" d="M52.8,7.7c2.7-1.6,4.5-3.9,5.3-6.8c-2.7,1.4-5.3,2.3-7.8,2.9C48,1.3,45,0,41.5,0c-3.4,0-6.3,1.2-8.7,3.6
		c-2.4,2.4-3.6,5.3-3.6,8.6c0,1,0.1,1.9,0.4,2.7C19.3,14.6,10.9,10.4,4.2,2.2C3,4.2,2.5,6.3,2.5,8.3c0,4.3,1.8,7.8,5.5,10.3
		C5.8,18.4,4,17.9,2.5,17v0.1c0,3,0.9,5.7,2.8,7.9c1.9,2.2,4.2,3.6,6.9,4.2c-1,0.3-2.1,0.4-3.3,0.4c-1.1,0-1.8-0.1-2.2-0.3
		c0.7,2.4,2.1,4.4,4.2,6c2.1,1.6,4.5,2.4,7.2,2.5c-4.5,3.5-9.5,5.2-15.2,5.2c-1.2,0-2.2,0-3-0.1c5.7,3.6,12,5.5,18.8,5.5
		c7.1,0,13.3-1.8,18.8-5.4c5.5-3.6,9.5-8,12.1-13.2c2.6-5.2,3.9-10.6,3.9-16.2v-1.6c2.5-1.8,4.5-3.9,6.1-6.4
		C57.5,6.7,55.2,7.3,52.8,7.7"/>
</g>
</svg>
