<?xml version="1.0" encoding="utf-8"?>
<!-- Generator: Adobe Illustrator 21.1.0, SVG Export Plug-In . SVG Version: 6.00 Build 0)  -->
<svg version="1.1" id="Слой_1" xmlns="http://www.w3.org/2000/svg" xmlns:xlink="http://www.w3.org/1999/xlink" x="0px" y="0px"
	 viewBox="0 0 65 42.8" style="enable-background:new 0 0 65 42.8;" xml:space="preserve">
<style type="text/css">
	.st0{clip-path:url(#SVGID_2_);fill:#506A85;}
</style>
<g>
	<defs>
		<rect id="SVGID_1_" y="0" width="65" height="42.8"/>
	</defs>
	<clipPath id="SVGID_2_">
		<use xlink:href="#SVGID_1_"  style="overflow:visible;"/>
	</clipPath>
	<path class="st0" d="M42.3,7.5h16.6V2.5H42.3V7.5z M43.9,23.3l0.4-1.6c0.3-1.1,1-2.2,2.2-3.3c1.2-1.1,2.7-1.6,4.5-1.6
		c1,0,2,0.2,2.9,0.6c0.9,0.4,1.6,1,2,1.6c0.9,1.4,1.3,2.8,1.3,4.2H43.9z M43.4,12.4c-2,1.1-3.4,2.3-4.5,3.5c-1,1.3-1.9,3-2.5,5.2
		c-0.6,2.2-1,4.1-1,5.7v1.7c0,2.6,1,5.5,2.9,8.6c1,1.7,2.7,3.1,4.9,4.1c2.3,1,4.8,1.5,7.7,1.5l3.5-0.1c2.3,0,4.5-1,6.8-2.9
		c2.3-1.8,3.4-4.5,3.4-8.1h-7l-0.1,1.2c0,0.7-0.6,1.4-1.8,2.1c-1.1,0.7-2.7,1.1-4.6,1.1L49.4,36c-1.2,0-2.4-0.6-3.6-1.8
		c-1.2-1.2-1.8-3-1.8-5.3h20.8l0.1-2c0.2-3-0.5-6.3-2.1-9.8c-0.9-1.9-2.4-3.5-4.6-4.6c-2.1-1.2-4.6-1.8-7.4-1.8
		C48,10.7,45.5,11.2,43.4,12.4 M20.4,34.5H9.2V23.3h11.7l1.2,0.1c0.6,0,1.3,0.6,2.1,1.6c0.7,1,1,2.3,1,4
		C25.2,32.6,23.6,34.5,20.4,34.5 M9.2,16.8V7.4h11.7l0.6,0.1c0.7,0.1,1.2,0.6,1.6,1.5c0.4,0.8,0.6,1.8,0.6,2.8c0,1.7-0.3,3-0.7,3.8
		c-0.5,0.8-1.4,1.2-2.8,1.2H9.2z M0,0v42h22.2c2.4-0.3,4.7-1.1,7-2.5c1.4-0.8,2.5-2.1,3.3-3.9c0.8-1.8,1.2-3.8,1.2-6.1v-2.6
		c0-1.6-0.7-3.4-2-5.2c-1.2-1.7-3.1-2.6-5.5-2.6l1.6-0.3c1.3-0.3,2.4-1.2,3.3-2.7c0.9-1.5,1.3-3.2,1.3-5c0-3.5-1-6.3-3.1-8.2
		c-2.1-2-4.8-3-8.4-3H0z"/>
</g>
</svg>
